<svg width="461" height="460" viewBox="0 0 461 460" fill="none" xmlns="http://www.w3.org/2000/svg">
<path fill-rule="evenodd" clip-rule="evenodd" d="M0 96L15.3667 87.1111C30.7333 78.2222 61.4667 60.4444 92.2 56.8889C122.933 53.3333 153.667 64 184.4 71.1111C215.133 78.2222 245.867 81.7778 276.6 69.3333C307.333 56.8889 338.067 28.4444 368.8 14.2222C399.533 0 430.267 0 445.633 0H461V96H445.633C430.267 96 399.533 96 368.8 96C338.067 96 307.333 96 276.6 96C245.867 96 215.133 96 184.4 96C153.667 96 122.933 96 92.2 96C61.4667 96 30.7333 96 15.3667 96H0Z" fill="#5C92FB"/>
<path fill-rule="evenodd" clip-rule="evenodd" d="M0 93L15.3667 101.889C30.7333 110.778 61.4667 128.556 92.2 132.111C122.933 135.667 153.667 125 184.4 117.889C215.133 110.778 245.867 107.222 276.6 119.667C307.333 132.111 338.067 160.556 368.8 174.778C399.533 189 430.267 189 445.633 189H461V93H445.633C430.267 93 399.533 93 368.8 93C338.067 93 307.333 93 276.6 93C245.867 93 215.133 93 184.4 93C153.667 93 122.933 93 92.2 93C61.4667 93 30.7333 93 15.3667 93H0Z" fill="#5C92FB"/>
<path fill-rule="evenodd" clip-rule="evenodd" d="M461 371.429L445.633 362.963C430.267 354.497 399.533 337.566 368.8 334.18C338.067 330.794 307.333 340.952 276.6 347.725C245.867 354.497 215.133 357.884 184.4 346.032C153.667 334.18 122.933 307.09 92.2 293.545C61.4667 280 30.7333 280 15.3667 280H0V371.429H15.3667C30.7333 371.429 61.4667 371.429 92.2 371.429C122.933 371.429 153.667 371.429 184.4 371.429C215.133 371.429 245.867 371.429 276.6 371.429C307.333 371.429 338.067 371.429 368.8 371.429C399.533 371.429 430.267 371.429 445.633 371.429H461Z" fill="#5C92FB"/>
<path fill-rule="evenodd" clip-rule="evenodd" d="M461 368.571L445.633 377.037C430.267 385.503 399.533 402.434 368.8 405.82C338.067 409.206 307.333 399.048 276.6 392.275C245.867 385.503 215.133 382.116 184.4 393.968C153.667 405.82 122.933 432.91 92.2 446.455C61.4667 460 30.7333 460 15.3667 460H0V368.571H15.3667C30.7333 368.571 61.4667 368.571 92.2 368.571C122.933 368.571 153.667 368.571 184.4 368.571C215.133 368.571 245.867 368.571 276.6 368.571C307.333 368.571 338.067 368.571 368.8 368.571C399.533 368.571 430.267 368.571 445.633 368.571H461Z" fill="#5C92FB"/>
</svg>
