<svg width="345" height="50" viewBox="0 0 345 50" fill="none" xmlns="http://www.w3.org/2000/svg">
<path d="M23.377 23.709H24.0742C24.7259 23.709 25.2135 23.5814 25.5371 23.3262C25.8607 23.0664 26.0225 22.6904 26.0225 22.1982C26.0225 21.7015 25.8857 21.3346 25.6123 21.0977C25.3434 20.8607 24.9196 20.7422 24.3408 20.7422H23.377V23.709ZM28.1621 22.123C28.1621 23.1986 27.8249 24.0212 27.1504 24.5908C26.4805 25.1605 25.5257 25.4453 24.2861 25.4453H23.377V29H21.2578V19.0059H24.4502C25.6624 19.0059 26.583 19.2679 27.2119 19.792C27.8454 20.3115 28.1621 21.0885 28.1621 22.123ZM33.0498 22.6973C32.6077 22.6973 32.2614 22.8385 32.0107 23.1211C31.7601 23.3991 31.6165 23.7956 31.5801 24.3105H34.5059C34.4967 23.7956 34.3623 23.3991 34.1025 23.1211C33.8428 22.8385 33.4919 22.6973 33.0498 22.6973ZM33.3438 29.1367C32.1133 29.1367 31.1517 28.7972 30.459 28.1182C29.7663 27.4391 29.4199 26.4775 29.4199 25.2334C29.4199 23.9528 29.7389 22.9639 30.377 22.2666C31.0195 21.5648 31.9059 21.2139 33.0361 21.2139C34.1162 21.2139 34.957 21.5215 35.5586 22.1367C36.1602 22.752 36.4609 23.6019 36.4609 24.6865V25.6982H31.5322C31.555 26.2907 31.7305 26.7533 32.0586 27.0859C32.3867 27.4186 32.847 27.585 33.4395 27.585C33.8997 27.585 34.335 27.5371 34.7451 27.4414C35.1553 27.3457 35.5837 27.193 36.0303 26.9834V28.5967C35.6657 28.779 35.276 28.9134 34.8613 29C34.4466 29.0911 33.9408 29.1367 33.3438 29.1367ZM42.4219 21.2139C42.7044 21.2139 42.9391 21.2344 43.126 21.2754L42.9688 23.2305C42.8001 23.1849 42.5951 23.1621 42.3535 23.1621C41.6882 23.1621 41.1686 23.333 40.7949 23.6748C40.4258 24.0166 40.2412 24.4951 40.2412 25.1104V29H38.1562V21.3574H39.7354L40.043 22.6426H40.1455C40.3825 22.2142 40.7015 21.8701 41.1025 21.6104C41.5081 21.346 41.9479 21.2139 42.4219 21.2139ZM49.8457 26.7305C49.8457 27.5143 49.5723 28.1113 49.0254 28.5215C48.4831 28.9316 47.6696 29.1367 46.585 29.1367C46.029 29.1367 45.555 29.098 45.1631 29.0205C44.7712 28.9476 44.4043 28.8382 44.0625 28.6924V26.9697C44.4499 27.152 44.8851 27.3047 45.3682 27.4277C45.8558 27.5508 46.2842 27.6123 46.6533 27.6123C47.4098 27.6123 47.7881 27.3936 47.7881 26.9561C47.7881 26.792 47.738 26.6598 47.6377 26.5596C47.5374 26.4548 47.3643 26.3385 47.1182 26.2109C46.8721 26.0788 46.5439 25.9261 46.1338 25.7529C45.5459 25.5068 45.113 25.279 44.835 25.0693C44.5615 24.8597 44.361 24.6204 44.2334 24.3516C44.1104 24.0781 44.0488 23.7432 44.0488 23.3467C44.0488 22.6676 44.3109 22.1436 44.835 21.7744C45.3636 21.4007 46.111 21.2139 47.0771 21.2139C47.9977 21.2139 48.8932 21.4144 49.7637 21.8154L49.1348 23.3193C48.752 23.1553 48.3942 23.0208 48.0615 22.916C47.7288 22.8112 47.3893 22.7588 47.043 22.7588C46.4277 22.7588 46.1201 22.9251 46.1201 23.2578C46.1201 23.4447 46.2181 23.6064 46.4141 23.7432C46.6146 23.8799 47.0498 24.0827 47.7197 24.3516C48.3167 24.5931 48.7542 24.8187 49.0322 25.0283C49.3102 25.238 49.5153 25.4795 49.6475 25.7529C49.7796 26.0264 49.8457 26.3522 49.8457 26.7305ZM53.1338 25.165C53.1338 25.9215 53.2568 26.4935 53.5029 26.8809C53.7536 27.2682 54.1592 27.4619 54.7197 27.4619C55.2757 27.4619 55.6745 27.2705 55.916 26.8877C56.1621 26.5003 56.2852 25.9261 56.2852 25.165C56.2852 24.4085 56.1621 23.8411 55.916 23.4629C55.6699 23.0846 55.2666 22.8955 54.7061 22.8955C54.1501 22.8955 53.749 23.0846 53.5029 23.4629C53.2568 23.8366 53.1338 24.404 53.1338 25.165ZM58.418 25.165C58.418 26.4092 58.0898 27.3822 57.4336 28.084C56.7773 28.7858 55.8636 29.1367 54.6924 29.1367C53.9587 29.1367 53.3115 28.9772 52.751 28.6582C52.1904 28.3346 51.7598 27.8721 51.459 27.2705C51.1582 26.6689 51.0078 25.9671 51.0078 25.165C51.0078 23.9163 51.3337 22.9456 51.9854 22.2529C52.637 21.5602 53.5531 21.2139 54.7334 21.2139C55.4671 21.2139 56.1143 21.3734 56.6748 21.6924C57.2354 22.0114 57.666 22.4694 57.9668 23.0664C58.2676 23.6634 58.418 24.363 58.418 25.165ZM67.1953 29H65.1104V24.5361C65.1104 23.9847 65.0124 23.5723 64.8164 23.2988C64.6204 23.0208 64.3083 22.8818 63.8799 22.8818C63.2965 22.8818 62.875 23.0778 62.6152 23.4697C62.3555 23.8571 62.2256 24.502 62.2256 25.4043V29H60.1406V21.3574H61.7334L62.0137 22.335H62.1299C62.3623 21.9658 62.6813 21.6878 63.0869 21.501C63.4971 21.3096 63.9619 21.2139 64.4814 21.2139C65.3701 21.2139 66.0446 21.4554 66.5049 21.9385C66.9652 22.417 67.1953 23.1097 67.1953 24.0166V29ZM74.1953 29L73.792 27.9609H73.7373C73.3864 28.403 73.0241 28.7106 72.6504 28.8838C72.2812 29.0524 71.7982 29.1367 71.2012 29.1367C70.4674 29.1367 69.8887 28.9271 69.4648 28.5078C69.0456 28.0885 68.8359 27.4915 68.8359 26.7168C68.8359 25.9056 69.1185 25.3086 69.6836 24.9258C70.2533 24.5384 71.11 24.3242 72.2539 24.2832L73.5801 24.2422V23.9072C73.5801 23.1325 73.1836 22.7451 72.3906 22.7451C71.7799 22.7451 71.0622 22.9297 70.2373 23.2988L69.5469 21.8906C70.4264 21.4303 71.4017 21.2002 72.4727 21.2002C73.498 21.2002 74.2842 21.4235 74.8311 21.8701C75.3779 22.3167 75.6514 22.9958 75.6514 23.9072V29H74.1953ZM73.5801 25.459L72.7734 25.4863C72.1673 25.5046 71.7161 25.6139 71.4199 25.8145C71.1237 26.015 70.9756 26.3203 70.9756 26.7305C70.9756 27.3184 71.3128 27.6123 71.9873 27.6123C72.4704 27.6123 72.8555 27.4733 73.1426 27.1953C73.4342 26.9173 73.5801 26.5482 73.5801 26.0879V25.459ZM79.8896 29H77.8047V18.3633H79.8896V29ZM89.7402 29H87.6211V20.7695H84.9072V19.0059H92.4541V20.7695H89.7402V29ZM98.0938 21.2139C98.3763 21.2139 98.611 21.2344 98.7979 21.2754L98.6406 23.2305C98.472 23.1849 98.2669 23.1621 98.0254 23.1621C97.36 23.1621 96.8405 23.333 96.4668 23.6748C96.0977 24.0166 95.9131 24.4951 95.9131 25.1104V29H93.8281V21.3574H95.4072L95.7148 22.6426H95.8174C96.0544 22.2142 96.3734 21.8701 96.7744 21.6104C97.18 21.346 97.6198 21.2139 98.0938 21.2139ZM105.039 29L104.636 27.9609H104.581C104.23 28.403 103.868 28.7106 103.494 28.8838C103.125 29.0524 102.642 29.1367 102.045 29.1367C101.311 29.1367 100.732 28.9271 100.309 28.5078C99.8893 28.0885 99.6797 27.4915 99.6797 26.7168C99.6797 25.9056 99.9622 25.3086 100.527 24.9258C101.097 24.5384 101.954 24.3242 103.098 24.2832L104.424 24.2422V23.9072C104.424 23.1325 104.027 22.7451 103.234 22.7451C102.624 22.7451 101.906 22.9297 101.081 23.2988L100.391 21.8906C101.27 21.4303 102.245 21.2002 103.316 21.2002C104.342 21.2002 105.128 21.4235 105.675 21.8701C106.222 22.3167 106.495 22.9958 106.495 23.9072V29H105.039ZM104.424 25.459L103.617 25.4863C103.011 25.5046 102.56 25.6139 102.264 25.8145C101.967 26.015 101.819 26.3203 101.819 26.7305C101.819 27.3184 102.157 27.6123 102.831 27.6123C103.314 27.6123 103.699 27.4733 103.986 27.1953C104.278 26.9173 104.424 26.5482 104.424 26.0879V25.459ZM108.56 19.3818C108.56 18.7028 108.938 18.3633 109.694 18.3633C110.451 18.3633 110.829 18.7028 110.829 19.3818C110.829 19.7054 110.733 19.9583 110.542 20.1406C110.355 20.3184 110.073 20.4072 109.694 20.4072C108.938 20.4072 108.56 20.0654 108.56 19.3818ZM110.733 29H108.648V21.3574H110.733V29ZM119.982 29H117.897V24.5361C117.897 23.9847 117.799 23.5723 117.604 23.2988C117.408 23.0208 117.095 22.8818 116.667 22.8818C116.084 22.8818 115.662 23.0778 115.402 23.4697C115.143 23.8571 115.013 24.502 115.013 25.4043V29H112.928V21.3574H114.521L114.801 22.335H114.917C115.149 21.9658 115.468 21.6878 115.874 21.501C116.284 21.3096 116.749 21.2139 117.269 21.2139C118.157 21.2139 118.832 21.4554 119.292 21.9385C119.752 22.417 119.982 23.1097 119.982 24.0166V29ZM125.294 22.6973C124.852 22.6973 124.506 22.8385 124.255 23.1211C124.004 23.3991 123.861 23.7956 123.824 24.3105H126.75C126.741 23.7956 126.606 23.3991 126.347 23.1211C126.087 22.8385 125.736 22.6973 125.294 22.6973ZM125.588 29.1367C124.357 29.1367 123.396 28.7972 122.703 28.1182C122.01 27.4391 121.664 26.4775 121.664 25.2334C121.664 23.9528 121.983 22.9639 122.621 22.2666C123.264 21.5648 124.15 21.2139 125.28 21.2139C126.36 21.2139 127.201 21.5215 127.803 22.1367C128.404 22.752 128.705 23.6019 128.705 24.6865V25.6982H123.776C123.799 26.2907 123.975 26.7533 124.303 27.0859C124.631 27.4186 125.091 27.585 125.684 27.585C126.144 27.585 126.579 27.5371 126.989 27.4414C127.399 27.3457 127.828 27.193 128.274 26.9834V28.5967C127.91 28.779 127.52 28.9134 127.105 29C126.691 29.0911 126.185 29.1367 125.588 29.1367ZM134.666 21.2139C134.949 21.2139 135.183 21.2344 135.37 21.2754L135.213 23.2305C135.044 23.1849 134.839 23.1621 134.598 23.1621C133.932 23.1621 133.413 23.333 133.039 23.6748C132.67 24.0166 132.485 24.4951 132.485 25.1104V29H130.4V21.3574H131.979L132.287 22.6426H132.39C132.627 22.2142 132.946 21.8701 133.347 21.6104C133.752 21.346 134.192 21.2139 134.666 21.2139Z" fill="black"/>
<path d="M317 23.9256L321.538 28.4631L322.834 27.167L317 21.3333L311.167 27.167L312.463 28.4631L317 23.9256Z" fill="black"/>
<path d="M0.5 5C0.5 2.51472 2.51472 0.5 5 0.5H340C342.485 0.5 344.5 2.51472 344.5 5V49.5H0.5V5Z" stroke="#E6E6E6"/>
</svg>
