<svg width="216" height="48" viewBox="0 0 216 48" fill="none" xmlns="http://www.w3.org/2000/svg">
<path d="M58.0571 20.2515C56.8804 20.2515 55.9502 20.6445 55.2666 21.4307C54.5879 22.2119 54.2485 23.2837 54.2485 24.646C54.2485 26.0474 54.5757 27.1313 55.23 27.8979C55.8892 28.6597 56.8267 29.0405 58.0425 29.0405C58.7896 29.0405 59.6416 28.9062 60.5986 28.6377V29.729C59.8564 30.0073 58.9409 30.1465 57.8521 30.1465C56.2749 30.1465 55.0566 29.668 54.1973 28.7109C53.3428 27.7539 52.9155 26.394 52.9155 24.6313C52.9155 23.5278 53.1206 22.561 53.5308 21.731C53.9458 20.9009 54.5415 20.2612 55.3179 19.812C56.0991 19.3628 57.0171 19.1382 58.0718 19.1382C59.1948 19.1382 60.1763 19.3433 61.0161 19.7534L60.4888 20.8228C59.6782 20.4419 58.8677 20.2515 58.0571 20.2515ZM66.4141 21.8262C66.7705 21.8262 67.0903 21.8555 67.3735 21.9141L67.2051 23.042C66.873 22.9688 66.5801 22.9321 66.3262 22.9321C65.6768 22.9321 65.1201 23.1958 64.6562 23.7231C64.1973 24.2505 63.9678 24.9072 63.9678 25.6934V30H62.752V21.9727H63.7554L63.8945 23.4595H63.9531C64.251 22.937 64.6099 22.5342 65.0298 22.251C65.4497 21.9678 65.9111 21.8262 66.4141 21.8262ZM75.8037 25.979C75.8037 27.2876 75.4741 28.3105 74.8149 29.0479C74.1558 29.7803 73.2451 30.1465 72.083 30.1465C71.3652 30.1465 70.728 29.978 70.1714 29.6411C69.6147 29.3042 69.1851 28.8208 68.8823 28.1909C68.5796 27.561 68.4282 26.8237 68.4282 25.979C68.4282 24.6704 68.7554 23.6523 69.4097 22.9248C70.064 22.1924 70.9722 21.8262 72.1343 21.8262C73.2573 21.8262 74.1484 22.1997 74.8076 22.9468C75.4717 23.6938 75.8037 24.7046 75.8037 25.979ZM69.688 25.979C69.688 27.0044 69.8931 27.7856 70.3032 28.3228C70.7134 28.8599 71.3164 29.1284 72.1123 29.1284C72.9082 29.1284 73.5112 28.8623 73.9214 28.3301C74.3364 27.793 74.5439 27.0093 74.5439 25.979C74.5439 24.9585 74.3364 24.1846 73.9214 23.6572C73.5112 23.125 72.9033 22.8589 72.0977 22.8589C71.3018 22.8589 70.7012 23.1201 70.2959 23.6426C69.8906 24.165 69.688 24.9438 69.688 25.979ZM83.1206 27.8101C83.1206 28.5571 82.8423 29.1333 82.2856 29.5386C81.729 29.9438 80.9478 30.1465 79.9419 30.1465C78.8774 30.1465 78.0474 29.978 77.4517 29.6411V28.5132C77.8374 28.7085 78.25 28.8623 78.6895 28.9746C79.1338 29.0869 79.561 29.1431 79.9712 29.1431C80.606 29.1431 81.0942 29.043 81.436 28.8428C81.7778 28.6377 81.9487 28.3276 81.9487 27.9126C81.9487 27.6001 81.812 27.334 81.5386 27.1143C81.27 26.8896 80.7427 26.626 79.9565 26.3232C79.2095 26.0449 78.6772 25.8032 78.3599 25.5981C78.0474 25.3882 77.813 25.1514 77.6567 24.8877C77.5054 24.624 77.4297 24.3091 77.4297 23.9429C77.4297 23.2886 77.6958 22.7734 78.228 22.3975C78.7603 22.0166 79.4902 21.8262 80.418 21.8262C81.2822 21.8262 82.127 22.002 82.9521 22.3535L82.52 23.3423C81.7144 23.0103 80.9844 22.8442 80.3301 22.8442C79.7539 22.8442 79.3193 22.9346 79.0264 23.1152C78.7334 23.2959 78.5869 23.5449 78.5869 23.8623C78.5869 24.0771 78.6406 24.2603 78.748 24.4116C78.8604 24.563 79.0386 24.707 79.2827 24.8438C79.5269 24.9805 79.9956 25.1782 80.689 25.437C81.6411 25.7837 82.2832 26.1328 82.6152 26.4844C82.9521 26.8359 83.1206 27.2778 83.1206 27.8101ZM90.2837 27.8101C90.2837 28.5571 90.0054 29.1333 89.4487 29.5386C88.8921 29.9438 88.1108 30.1465 87.105 30.1465C86.0405 30.1465 85.2104 29.978 84.6147 29.6411V28.5132C85.0005 28.7085 85.4131 28.8623 85.8525 28.9746C86.2969 29.0869 86.7241 29.1431 87.1343 29.1431C87.769 29.1431 88.2573 29.043 88.5991 28.8428C88.9409 28.6377 89.1118 28.3276 89.1118 27.9126C89.1118 27.6001 88.9751 27.334 88.7017 27.1143C88.4331 26.8896 87.9058 26.626 87.1196 26.3232C86.3726 26.0449 85.8403 25.8032 85.5229 25.5981C85.2104 25.3882 84.9761 25.1514 84.8198 24.8877C84.6685 24.624 84.5928 24.3091 84.5928 23.9429C84.5928 23.2886 84.8589 22.7734 85.3911 22.3975C85.9233 22.0166 86.6533 21.8262 87.5811 21.8262C88.4453 21.8262 89.29 22.002 90.1152 22.3535L89.6831 23.3423C88.8774 23.0103 88.1475 22.8442 87.4932 22.8442C86.917 22.8442 86.4824 22.9346 86.1895 23.1152C85.8965 23.2959 85.75 23.5449 85.75 23.8623C85.75 24.0771 85.8037 24.2603 85.9111 24.4116C86.0234 24.563 86.2017 24.707 86.4458 24.8438C86.6899 24.9805 87.1587 25.1782 87.8521 25.437C88.8042 25.7837 89.4463 26.1328 89.7783 26.4844C90.1152 26.8359 90.2837 27.2778 90.2837 27.8101ZM93.6968 30H92.4517V19.292H98.4209V20.3979H93.6968V24.3164H98.1353V25.4224H93.6968V30ZM101.233 30H100.018V21.9727H101.233V30ZM99.915 19.7974C99.915 19.519 99.9834 19.3164 100.12 19.1895C100.257 19.0576 100.428 18.9917 100.633 18.9917C100.828 18.9917 100.997 19.0576 101.138 19.1895C101.28 19.3213 101.351 19.5239 101.351 19.7974C101.351 20.0708 101.28 20.2759 101.138 20.4126C100.997 20.5444 100.828 20.6104 100.633 20.6104C100.428 20.6104 100.257 20.5444 100.12 20.4126C99.9834 20.2759 99.915 20.0708 99.915 19.7974ZM106.404 29.1431C106.619 29.1431 106.827 29.1284 107.027 29.0991C107.227 29.0649 107.386 29.0308 107.503 28.9966V29.9268C107.371 29.9902 107.176 30.0415 106.917 30.0806C106.663 30.1245 106.434 30.1465 106.229 30.1465C104.676 30.1465 103.899 29.3286 103.899 27.6929V22.9175H102.75V22.3315L103.899 21.8262L104.412 20.1123H105.115V21.9727H107.444V22.9175H105.115V27.6416C105.115 28.125 105.23 28.4961 105.459 28.7549C105.689 29.0137 106.004 29.1431 106.404 29.1431Z" fill="black"/>
<path d="M0.5 0.5H215.5V43C215.5 45.4853 213.485 47.5 211 47.5H4.99999C2.51471 47.5 0.5 45.4853 0.5 43V0.5Z" stroke="#E6E6E6"/>
</svg>
