<svg width="108" height="20" viewBox="0 0 108 20" fill="none" xmlns="http://www.w3.org/2000/svg">
<path d="M18.289 7.64918C18.2366 7.4949 18.1402 7.35934 18.0117 7.25923C17.8831 7.15912 17.7281 7.09884 17.5657 7.08585L12.8149 6.70835L10.759 2.15751C10.6936 2.01094 10.5871 1.88645 10.4524 1.79906C10.3177 1.71167 10.1607 1.66513 10.0001 1.66504C9.8396 1.66495 9.68247 1.71132 9.54771 1.79856C9.41296 1.8858 9.30633 2.01018 9.24069 2.15668L7.18486 6.70835L2.43403 7.08585C2.27441 7.09849 2.12181 7.15685 1.99449 7.25395C1.86717 7.35105 1.77052 7.48278 1.7161 7.63337C1.66169 7.78396 1.65181 7.94704 1.68765 8.1031C1.72349 8.25916 1.80353 8.40159 1.91819 8.51335L5.42903 11.9358L4.18736 17.3125C4.14966 17.4753 4.16174 17.6456 4.22204 17.8014C4.28234 17.9572 4.38808 18.0913 4.52553 18.1862C4.66298 18.2812 4.82579 18.3326 4.99285 18.3339C5.1599 18.3352 5.32348 18.2862 5.46236 18.1933L9.99986 15.1683L14.5374 18.1933C14.6793 18.2876 14.8467 18.3361 15.0171 18.3324C15.1874 18.3286 15.3525 18.2728 15.4902 18.1725C15.6279 18.0721 15.7315 17.9319 15.7872 17.7709C15.8428 17.6099 15.8478 17.4356 15.8015 17.2717L14.2774 11.9383L18.0574 8.53668C18.3049 8.31335 18.3957 7.96501 18.289 7.64918Z" fill="#FFDE3A"/>
<path d="M40.289 7.64918C40.2366 7.4949 40.1402 7.35934 40.0117 7.25923C39.8831 7.15912 39.7281 7.09884 39.5657 7.08585L34.8149 6.70835L32.759 2.15751C32.6936 2.01094 32.5871 1.88645 32.4524 1.79906C32.3177 1.71167 32.1607 1.66513 32.0001 1.66504C31.8396 1.66495 31.6825 1.71132 31.5477 1.79856C31.413 1.8858 31.3063 2.01018 31.2407 2.15668L29.1849 6.70835L24.434 7.08585C24.2744 7.09849 24.1218 7.15685 23.9945 7.25395C23.8672 7.35105 23.7705 7.48278 23.7161 7.63337C23.6617 7.78396 23.6518 7.94704 23.6876 8.1031C23.7235 8.25916 23.8035 8.40159 23.9182 8.51335L27.429 11.9358L26.1874 17.3125C26.1497 17.4753 26.1617 17.6456 26.222 17.8014C26.2823 17.9572 26.3881 18.0913 26.5255 18.1862C26.663 18.2812 26.8258 18.3326 26.9928 18.3339C27.1599 18.3352 27.3235 18.2862 27.4624 18.1933L31.9999 15.1683L36.5374 18.1933C36.6793 18.2876 36.8467 18.3361 37.0171 18.3324C37.1874 18.3286 37.3525 18.2728 37.4902 18.1725C37.6279 18.0721 37.7315 17.9319 37.7872 17.7709C37.8428 17.6099 37.8478 17.4356 37.8015 17.2717L36.2774 11.9383L40.0574 8.53668C40.3049 8.31335 40.3957 7.96501 40.289 7.64918Z" fill="#FFDE3A"/>
<path d="M62.289 7.64918C62.2366 7.4949 62.1402 7.35934 62.0117 7.25923C61.8831 7.15912 61.7281 7.09884 61.5657 7.08585L56.8149 6.70835L54.759 2.15751C54.6936 2.01094 54.5871 1.88645 54.4524 1.79906C54.3177 1.71167 54.1607 1.66513 54.0001 1.66504C53.8396 1.66495 53.6825 1.71132 53.5477 1.79856C53.413 1.8858 53.3063 2.01018 53.2407 2.15668L51.1849 6.70835L46.434 7.08585C46.2744 7.09849 46.1218 7.15685 45.9945 7.25395C45.8672 7.35105 45.7705 7.48278 45.7161 7.63337C45.6617 7.78396 45.6518 7.94704 45.6876 8.1031C45.7235 8.25916 45.8035 8.40159 45.9182 8.51335L49.429 11.9358L48.1874 17.3125C48.1497 17.4753 48.1617 17.6456 48.222 17.8014C48.2823 17.9572 48.3881 18.0913 48.5255 18.1862C48.663 18.2812 48.8258 18.3326 48.9928 18.3339C49.1599 18.3352 49.3235 18.2862 49.4624 18.1933L53.9999 15.1683L58.5374 18.1933C58.6793 18.2876 58.8467 18.3361 59.0171 18.3324C59.1874 18.3286 59.3525 18.2728 59.4902 18.1725C59.6279 18.0721 59.7315 17.9319 59.7872 17.7709C59.8428 17.6099 59.8478 17.4356 59.8015 17.2717L58.2774 11.9383L62.0574 8.53668C62.3049 8.31335 62.3957 7.96501 62.289 7.64918Z" fill="#FFDE3A"/>
<path d="M84.289 7.64918C84.2366 7.4949 84.1402 7.35934 84.0117 7.25923C83.8831 7.15912 83.7281 7.09884 83.5657 7.08585L78.8149 6.70835L76.759 2.15751C76.6936 2.01094 76.5871 1.88645 76.4524 1.79906C76.3177 1.71167 76.1607 1.66513 76.0001 1.66504C75.8396 1.66495 75.6825 1.71132 75.5477 1.79856C75.413 1.8858 75.3063 2.01018 75.2407 2.15668L73.1849 6.70835L68.434 7.08585C68.2744 7.09849 68.1218 7.15685 67.9945 7.25395C67.8672 7.35105 67.7705 7.48278 67.7161 7.63337C67.6617 7.78396 67.6518 7.94704 67.6876 8.1031C67.7235 8.25916 67.8035 8.40159 67.9182 8.51335L71.429 11.9358L70.1874 17.3125C70.1497 17.4753 70.1617 17.6456 70.222 17.8014C70.2823 17.9572 70.3881 18.0913 70.5255 18.1862C70.663 18.2812 70.8258 18.3326 70.9928 18.3339C71.1599 18.3352 71.3235 18.2862 71.4624 18.1933L75.9999 15.1683L80.5374 18.1933C80.6793 18.2876 80.8467 18.3361 81.0171 18.3324C81.1874 18.3286 81.3525 18.2728 81.4902 18.1725C81.6279 18.0721 81.7315 17.9319 81.7872 17.7709C81.8428 17.6099 81.8478 17.4356 81.8015 17.2717L80.2774 11.9383L84.0574 8.53668C84.3049 8.31335 84.3957 7.96501 84.289 7.64918Z" fill="#FFDE3A"/>
<path d="M100.481 7.18338L100.775 7.20677L105.526 7.58425C105.591 7.58946 105.653 7.6136 105.704 7.65371L106.012 7.25923L105.704 7.65371C105.756 7.69377 105.795 7.74801 105.816 7.80974C105.858 7.93661 105.822 8.07577 105.723 8.16529C105.723 8.16535 105.722 8.16541 105.722 8.16547L101.943 11.5667L101.711 11.7755L101.797 12.0757L103.32 17.4076C103.32 17.4078 103.32 17.408 103.321 17.4082C103.339 17.4737 103.337 17.5433 103.315 17.6076C103.292 17.6721 103.251 17.7282 103.196 17.7684C103.14 17.8086 103.074 17.831 103.006 17.8325C102.938 17.834 102.871 17.8146 102.814 17.777C102.814 17.777 102.814 17.7769 102.814 17.7768L98.2772 14.7523L97.9999 14.5674L97.7225 14.7523L93.185 17.7773L93.1845 17.7777C93.1289 17.8148 93.0635 17.8344 92.9967 17.8339C92.9298 17.8334 92.8647 17.8128 92.8097 17.7748C92.7547 17.7369 92.7125 17.6832 92.6883 17.6209C92.6642 17.5586 92.6594 17.4905 92.6745 17.4254L92.6745 17.425L93.9162 12.0484L93.9795 11.7742L93.778 11.5778L90.2672 8.15532L90.2672 8.15528C90.2213 8.11058 90.1893 8.05361 90.175 7.99119C90.1606 7.92876 90.1646 7.86353 90.1863 7.80329C90.2081 7.74306 90.2468 7.69037 90.2977 7.65153L89.9953 7.25505L90.2977 7.65153C90.3486 7.61269 90.4097 7.58934 90.4735 7.58428L90.4736 7.58427L95.2245 7.20677L95.5189 7.18338L95.6405 6.91416L97.6964 2.36249L97.697 2.3611C97.7232 2.30268 97.7657 2.25308 97.8194 2.21829L97.5477 1.79856L97.8194 2.21829C97.8732 2.1835 97.9358 2.165 97.9999 2.16504C98.0639 2.16507 98.1265 2.18364 98.1802 2.21849C98.2339 2.25334 98.2764 2.30298 98.3025 2.36144L98.3034 2.36336L100.359 6.91419L100.481 7.18338Z" stroke="#FFDE3A"/>
</svg>
