<svg width="138" height="26" viewBox="0 0 138 26" fill="none" xmlns="http://www.w3.org/2000/svg">
<path d="M23.7758 9.94392C23.7077 9.74336 23.5824 9.56712 23.4152 9.43698C23.2481 9.30684 23.0466 9.22848 22.8354 9.21158L16.6594 8.72083L13.9868 2.80475C13.9017 2.61421 13.7632 2.45237 13.5882 2.33876C13.4131 2.22516 13.2089 2.16465 13.0002 2.16454C12.7915 2.16442 12.5873 2.22471 12.4121 2.33812C12.2369 2.45153 12.0983 2.61322 12.0129 2.80367L9.34036 8.72083L3.16428 9.21158C2.95678 9.22802 2.7584 9.3039 2.59288 9.43013C2.42737 9.55636 2.30172 9.7276 2.23098 9.92337C2.16024 10.1191 2.1474 10.3311 2.19399 10.534C2.24058 10.7369 2.34463 10.922 2.4937 11.0673L7.05778 15.5166L5.44362 22.5063C5.3946 22.7178 5.41031 22.9392 5.4887 23.1418C5.5671 23.3443 5.70455 23.5186 5.88323 23.6421C6.06192 23.7655 6.27358 23.8324 6.49075 23.834C6.70792 23.8357 6.92057 23.772 7.10112 23.6513L12.9999 19.7188L18.8986 23.6513C19.0831 23.7739 19.3008 23.8369 19.5222 23.8321C19.7437 23.8272 19.9583 23.7547 20.1373 23.6242C20.3163 23.4937 20.451 23.3115 20.5234 23.1022C20.5957 22.8928 20.6022 22.6663 20.542 22.4532L18.5606 15.5198L23.4746 11.0977C23.7964 10.8073 23.9144 10.3545 23.7758 9.94392Z" fill="#FFDE3A"/>
<path d="M51.7758 9.94392C51.7077 9.74336 51.5824 9.56712 51.4152 9.43698C51.2481 9.30684 51.0466 9.22848 50.8354 9.21158L44.6594 8.72083L41.9868 2.80475C41.9017 2.61421 41.7632 2.45237 41.5882 2.33876C41.4131 2.22516 41.2089 2.16465 41.0002 2.16454C40.7915 2.16442 40.5873 2.22471 40.4121 2.33812C40.2369 2.45153 40.0983 2.61322 40.0129 2.80367L37.3404 8.72083L31.1643 9.21158C30.9568 9.22802 30.7584 9.3039 30.5929 9.43013C30.4274 9.55636 30.3017 9.7276 30.231 9.92337C30.1602 10.1191 30.1474 10.3311 30.194 10.534C30.2406 10.7369 30.3446 10.922 30.4937 11.0673L35.0578 15.5166L33.4436 22.5063C33.3946 22.7178 33.4103 22.9392 33.4887 23.1418C33.5671 23.3443 33.7046 23.5186 33.8832 23.6421C34.0619 23.7655 34.2736 23.8324 34.4907 23.834C34.7079 23.8357 34.9206 23.772 35.1011 23.6513L40.9999 19.7188L46.8986 23.6513C47.0831 23.7739 47.3008 23.8369 47.5222 23.8321C47.7437 23.8272 47.9583 23.7547 48.1373 23.6242C48.3163 23.4937 48.451 23.3115 48.5234 23.1022C48.5957 22.8928 48.6022 22.6663 48.542 22.4532L46.5606 15.5198L51.4746 11.0977C51.7964 10.8073 51.9144 10.3545 51.7758 9.94392Z" fill="#FFDE3A"/>
<path d="M79.7758 9.94392C79.7077 9.74336 79.5824 9.56712 79.4152 9.43698C79.2481 9.30684 79.0466 9.22848 78.8354 9.21158L72.6594 8.72083L69.9868 2.80475C69.9017 2.61421 69.7632 2.45237 69.5882 2.33876C69.4131 2.22516 69.2089 2.16465 69.0002 2.16454C68.7915 2.16442 68.5873 2.22471 68.4121 2.33812C68.2369 2.45153 68.0983 2.61322 68.0129 2.80367L65.3404 8.72083L59.1643 9.21158C58.9568 9.22802 58.7584 9.3039 58.5929 9.43013C58.4274 9.55636 58.3017 9.7276 58.231 9.92337C58.1602 10.1191 58.1474 10.3311 58.194 10.534C58.2406 10.7369 58.3446 10.922 58.4937 11.0673L63.0578 15.5166L61.4436 22.5063C61.3946 22.7178 61.4103 22.9392 61.4887 23.1418C61.5671 23.3443 61.7046 23.5186 61.8832 23.6421C62.0619 23.7655 62.2736 23.8324 62.4907 23.834C62.7079 23.8357 62.9206 23.772 63.1011 23.6513L68.9999 19.7188L74.8986 23.6513C75.0831 23.7739 75.3008 23.8369 75.5222 23.8321C75.7437 23.8272 75.9583 23.7547 76.1373 23.6242C76.3163 23.4937 76.451 23.3115 76.5234 23.1022C76.5957 22.8928 76.6022 22.6663 76.542 22.4532L74.5606 15.5198L79.4746 11.0977C79.7964 10.8073 79.9144 10.3545 79.7758 9.94392Z" fill="#FFDE3A"/>
<path d="M107.776 9.94392C107.708 9.74336 107.582 9.56712 107.415 9.43698C107.248 9.30684 107.047 9.22848 106.835 9.21158L100.659 8.72083L97.9868 2.80475C97.9017 2.61421 97.7632 2.45237 97.5882 2.33876C97.4131 2.22516 97.2089 2.16465 97.0002 2.16454C96.7915 2.16442 96.5873 2.22471 96.4121 2.33812C96.2369 2.45153 96.0983 2.61322 96.0129 2.80367L93.3404 8.72083L87.1643 9.21158C86.9568 9.22802 86.7584 9.3039 86.5929 9.43013C86.4274 9.55636 86.3017 9.7276 86.231 9.92337C86.1602 10.1191 86.1474 10.3311 86.194 10.534C86.2406 10.7369 86.3446 10.922 86.4937 11.0673L91.0578 15.5166L89.4436 22.5063C89.3946 22.7178 89.4103 22.9392 89.4887 23.1418C89.5671 23.3443 89.7046 23.5186 89.8832 23.6421C90.0619 23.7655 90.2736 23.8324 90.4907 23.834C90.7079 23.8357 90.9206 23.772 91.1011 23.6513L96.9999 19.7188L102.899 23.6513C103.083 23.7739 103.301 23.8369 103.522 23.8321C103.744 23.8272 103.958 23.7547 104.137 23.6242C104.316 23.4937 104.451 23.3115 104.523 23.1022C104.596 22.8928 104.602 22.6663 104.542 22.4532L102.561 15.5198L107.475 11.0977C107.796 10.8073 107.914 10.3545 107.776 9.94392Z" fill="#FFDE3A"/>
<path d="M124.013 2.80367L121.34 8.72083L115.164 9.21158C114.957 9.22802 114.758 9.3039 114.593 9.43013C114.427 9.55636 114.302 9.7276 114.231 9.92337C114.16 10.1191 114.147 10.3311 114.194 10.534L124.013 2.80367ZM124.013 2.80367C124.098 2.61322 124.237 2.45153 124.412 2.33812C124.587 2.22471 124.792 2.16442 125 2.16454C125.209 2.16465 125.413 2.22516 125.588 2.33876C125.763 2.45237 125.902 2.61421 125.987 2.80475M124.013 2.80367L125.987 2.80475M125.987 2.80475L128.659 8.72083L125.987 2.80475ZM128.204 8.92668L128.325 9.19587L128.62 9.21926L134.796 9.70999C134.909 9.7191 135.018 9.76132 135.108 9.83146C135.198 9.90153 135.265 9.99638 135.302 10.1043C135.377 10.3259 135.313 10.5695 135.14 10.7261C135.14 10.7262 135.14 10.7263 135.14 10.7265L130.226 15.1482L129.994 15.357L130.08 15.6572L132.061 22.5891C132.061 22.5893 132.061 22.5895 132.061 22.5897C132.093 22.7044 132.09 22.8262 132.051 22.9388C132.012 23.0516 131.939 23.1498 131.843 23.2201C131.746 23.2905 131.631 23.3296 131.511 23.3322C131.392 23.3348 131.275 23.3008 131.175 23.2348L125.277 19.3028L125 19.1179L124.723 19.3028L118.824 23.2353L118.823 23.2357C118.726 23.3007 118.611 23.3349 118.495 23.3341C118.378 23.3332 118.264 23.2972 118.167 23.2307C118.071 23.1642 117.997 23.0704 117.955 22.9613L117.489 23.1418L117.955 22.9613C117.913 22.8522 117.904 22.733 117.931 22.6191L117.931 22.6188L119.545 15.6291L119.608 15.355L119.407 15.1586L114.843 10.7093L114.843 10.7093C114.762 10.631 114.706 10.5313 114.681 10.4221C114.656 10.3129 114.663 10.1987 114.701 10.0933C114.739 9.98788 114.807 9.89567 114.896 9.8277C114.985 9.75973 115.092 9.71887 115.204 9.71002L115.204 9.71001L121.38 9.21926L121.674 9.19586L121.796 8.92665L124.469 3.00948L124.469 3.00809C124.515 2.90572 124.59 2.8188 124.684 2.75784C124.778 2.69688 124.888 2.66447 125 2.66454C125.112 2.6646 125.222 2.69712 125.316 2.75819C125.41 2.81926 125.485 2.90625 125.53 3.00868L125.531 3.0106L128.204 8.92668Z" stroke="#FFDE3A"/>
</svg>
