<svg width="44" height="41" viewBox="0 0 44 41" fill="none" xmlns="http://www.w3.org/2000/svg">
<path d="M8.5 16.5L22 6L35.5 16V38.5H8.5V16.5Z" fill="#5B92FF"/>
<rect width="2.61507" height="27.7304" rx="1.30754" transform="matrix(-0.589518 0.807756 0.796195 0.60504 21.9213 2.59375)" fill="white"/>
<rect width="2.61507" height="27.9556" rx="1.30754" transform="matrix(0.589518 0.807756 -0.796195 0.60504 22.2581 2.59375)" fill="white"/>
<rect width="2.61507" height="12.3996" rx="1.30754" transform="matrix(0.589518 0.807756 -0.796195 0.60504 21.3128 10.377)" fill="white"/>
<rect width="2.61507" height="19.5166" rx="1.30754" transform="matrix(0.589518 0.807756 -0.796195 0.60504 15.5391 0)" fill="white"/>
<rect x="31.7787" y="24.6445" width="2.54229" height="6.48544" rx="1.27115" fill="white"/>
<rect width="2.24324" height="25.1793" rx="1.12162" transform="matrix(1 0 0 -1 35.6608 40.3428)" fill="white"/>
<rect width="2.24324" height="25.1793" rx="1.12162" transform="matrix(1 0 0 -1 6.49854 40.3428)" fill="white"/>
<rect width="2.28903" height="31.4054" rx="1.14451" transform="matrix(0 -1 -1 0 37.9039 40.3428)" fill="white"/>
<mask id="path-10-inside-1_271:168" fill="white">
<rect x="15.4715" y="24.3198" width="13.4595" height="16.0232" rx="1"/>
</mask>
<rect x="15.4715" y="24.3198" width="13.4595" height="16.0232" rx="1" fill="#5B92FF" stroke="white" stroke-width="4" mask="url(#path-10-inside-1_271:168)"/>
</svg>
