<svg width="220" height="205" viewBox="0 0 220 205" fill="none" xmlns="http://www.w3.org/2000/svg">
<mask id="mask0_170:1099" style="mask-type:alpha" maskUnits="userSpaceOnUse" x="0" y="0" width="220" height="205">
<rect width="220" height="205" fill="#C4C4C4"/>
</mask>
<g mask="url(#mask0_170:1099)">
<rect x="5" y="2" width="174" height="199" rx="13" fill="white"/>
<ellipse rx="2.65487" ry="2.6067" transform="matrix(1 0 0 -1 18.6549 124.91)" fill="#505050"/>
<ellipse rx="2.65487" ry="2.6067" transform="matrix(1 0 0 -1 25.2921 124.91)" fill="#505050"/>
<ellipse rx="2.65487" ry="2.6067" transform="matrix(1 0 0 -1 31.9293 124.91)" fill="#505050"/>
<ellipse rx="2.65487" ry="2.6067" transform="matrix(1 0 0 -1 38.5662 124.91)" fill="#505050"/>
<ellipse rx="2.65487" ry="2.6067" transform="matrix(1 0 0 -1 48.5221 124.91)" fill="#505050"/>
<ellipse rx="2.65487" ry="2.6067" transform="matrix(1 0 0 -1 55.1593 124.91)" fill="#505050"/>
<ellipse rx="2.65487" ry="2.6067" transform="matrix(1 0 0 -1 61.7962 124.91)" fill="#505050"/>
<ellipse rx="2.65487" ry="2.6067" transform="matrix(1 0 0 -1 68.4334 124.91)" fill="#505050"/>
<path d="M80.163 123.1V128H79.029V124.01H78.049V123.1H80.163ZM82.9042 123.1V128H81.7702V124.01H80.7902V123.1H82.9042ZM85.8554 128.084C85.4494 128.084 85.0878 127.984 84.7704 127.783C84.4531 127.582 84.2034 127.293 84.0214 126.915C83.8441 126.532 83.7554 126.077 83.7554 125.55C83.7554 125.023 83.8441 124.57 84.0214 124.192C84.2034 123.809 84.4531 123.518 84.7704 123.317C85.0878 123.116 85.4494 123.016 85.8554 123.016C86.2614 123.016 86.6231 123.116 86.9404 123.317C87.2578 123.518 87.5051 123.809 87.6824 124.192C87.8644 124.57 87.9554 125.023 87.9554 125.55C87.9554 126.077 87.8644 126.532 87.6824 126.915C87.5051 127.293 87.2578 127.582 86.9404 127.783C86.6231 127.984 86.2614 128.084 85.8554 128.084ZM85.8554 127.125C86.1541 127.125 86.3874 126.997 86.5554 126.74C86.7281 126.483 86.8144 126.087 86.8144 125.55C86.8144 125.013 86.7281 124.617 86.5554 124.36C86.3874 124.103 86.1541 123.975 85.8554 123.975C85.5614 123.975 85.3281 124.103 85.1554 124.36C84.9874 124.617 84.9034 125.013 84.9034 125.55C84.9034 126.087 84.9874 126.483 85.1554 126.74C85.3281 126.997 85.5614 127.125 85.8554 127.125ZM90.6064 128.084C90.2004 128.084 89.8387 127.984 89.5214 127.783C89.2041 127.582 88.9544 127.293 88.7724 126.915C88.5951 126.532 88.5064 126.077 88.5064 125.55C88.5064 125.023 88.5951 124.57 88.7724 124.192C88.9544 123.809 89.2041 123.518 89.5214 123.317C89.8387 123.116 90.2004 123.016 90.6064 123.016C91.0124 123.016 91.3741 123.116 91.6914 123.317C92.0087 123.518 92.2561 123.809 92.4334 124.192C92.6154 124.57 92.7064 125.023 92.7064 125.55C92.7064 126.077 92.6154 126.532 92.4334 126.915C92.2561 127.293 92.0087 127.582 91.6914 127.783C91.3741 127.984 91.0124 128.084 90.6064 128.084ZM90.6064 127.125C90.9051 127.125 91.1384 126.997 91.3064 126.74C91.4791 126.483 91.5654 126.087 91.5654 125.55C91.5654 125.013 91.4791 124.617 91.3064 124.36C91.1384 124.103 90.9051 123.975 90.6064 123.975C90.3124 123.975 90.0791 124.103 89.9064 124.36C89.7384 124.617 89.6544 125.013 89.6544 125.55C89.6544 126.087 89.7384 126.483 89.9064 126.74C90.0791 126.997 90.3124 127.125 90.6064 127.125Z" fill="#505050"/>
<circle cx="124.5" cy="174.5" r="15.5" fill="#FFC635"/>
<circle cx="144.5" cy="174.5" r="15.5" fill="#FF3535"/>
<path d="M111.018 22.9C111.824 22.9 112.522 23.0343 113.111 23.303C113.709 23.5717 114.168 23.953 114.489 24.447C114.81 24.941 114.97 25.526 114.97 26.202C114.97 26.8693 114.81 27.4543 114.489 27.957C114.168 28.451 113.709 28.8323 113.111 29.101C112.522 29.361 111.824 29.491 111.018 29.491H109.185V32H107.079V22.9H111.018ZM110.901 27.775C111.534 27.775 112.015 27.6407 112.344 27.372C112.673 27.0947 112.838 26.7047 112.838 26.202C112.838 25.6907 112.673 25.3007 112.344 25.032C112.015 24.7547 111.534 24.616 110.901 24.616H109.185V27.775H110.901ZM119.088 24.902C120.171 24.902 121.003 25.162 121.584 25.682C122.165 26.1933 122.455 26.969 122.455 28.009V32H120.557V31.129C120.176 31.779 119.465 32.104 118.425 32.104C117.888 32.104 117.42 32.013 117.021 31.831C116.631 31.649 116.332 31.3977 116.124 31.077C115.916 30.7563 115.812 30.3923 115.812 29.985C115.812 29.335 116.055 28.8237 116.54 28.451C117.034 28.0783 117.792 27.892 118.815 27.892H120.427C120.427 27.45 120.293 27.112 120.024 26.878C119.755 26.6353 119.352 26.514 118.815 26.514C118.442 26.514 118.074 26.5747 117.71 26.696C117.355 26.8087 117.051 26.9647 116.8 27.164L116.072 25.747C116.453 25.4783 116.908 25.2703 117.437 25.123C117.974 24.9757 118.525 24.902 119.088 24.902ZM118.932 30.739C119.279 30.739 119.586 30.661 119.855 30.505C120.124 30.3403 120.314 30.102 120.427 29.79V29.075H119.036C118.204 29.075 117.788 29.348 117.788 29.894C117.788 30.154 117.888 30.362 118.087 30.518C118.295 30.6653 118.577 30.739 118.932 30.739ZM131.106 25.006L127.947 32.429C127.626 33.235 127.227 33.8027 126.751 34.132C126.283 34.4613 125.715 34.626 125.048 34.626C124.684 34.626 124.324 34.5697 123.969 34.457C123.613 34.3443 123.323 34.1883 123.098 33.989L123.839 32.546C123.995 32.6847 124.172 32.793 124.372 32.871C124.58 32.949 124.783 32.988 124.983 32.988C125.26 32.988 125.485 32.9187 125.659 32.78C125.832 32.65 125.988 32.429 126.127 32.117L126.153 32.052L123.124 25.006H125.217L127.18 29.751L129.156 25.006H131.106ZM140.89 24.902C141.765 24.902 142.459 25.162 142.97 25.682C143.49 26.1933 143.75 26.9647 143.75 27.996V32H141.722V28.308C141.722 27.7533 141.605 27.3417 141.371 27.073C141.146 26.7957 140.821 26.657 140.396 26.657C139.919 26.657 139.542 26.813 139.265 27.125C138.988 27.4283 138.849 27.8833 138.849 28.49V32H136.821V28.308C136.821 27.2073 136.379 26.657 135.495 26.657C135.027 26.657 134.654 26.813 134.377 27.125C134.1 27.4283 133.961 27.8833 133.961 28.49V32H131.933V25.006H133.87V25.812C134.13 25.5173 134.446 25.292 134.819 25.136C135.2 24.98 135.616 24.902 136.067 24.902C136.561 24.902 137.007 25.0017 137.406 25.201C137.805 25.3917 138.125 25.6733 138.368 26.046C138.654 25.682 139.014 25.4003 139.447 25.201C139.889 25.0017 140.37 24.902 140.89 24.902ZM148.389 24.902C149.472 24.902 150.304 25.162 150.885 25.682C151.466 26.1933 151.756 26.969 151.756 28.009V32H149.858V31.129C149.477 31.779 148.766 32.104 147.726 32.104C147.189 32.104 146.721 32.013 146.322 31.831C145.932 31.649 145.633 31.3977 145.425 31.077C145.217 30.7563 145.113 30.3923 145.113 29.985C145.113 29.335 145.356 28.8237 145.841 28.451C146.335 28.0783 147.093 27.892 148.116 27.892H149.728C149.728 27.45 149.594 27.112 149.325 26.878C149.056 26.6353 148.653 26.514 148.116 26.514C147.743 26.514 147.375 26.5747 147.011 26.696C146.656 26.8087 146.352 26.9647 146.101 27.164L145.373 25.747C145.754 25.4783 146.209 25.2703 146.738 25.123C147.275 24.9757 147.826 24.902 148.389 24.902ZM148.233 30.739C148.58 30.739 148.887 30.661 149.156 30.505C149.425 30.3403 149.615 30.102 149.728 29.79V29.075H148.337C147.505 29.075 147.089 29.348 147.089 29.894C147.089 30.154 147.189 30.362 147.388 30.518C147.596 30.6653 147.878 30.739 148.233 30.739ZM153.591 22.354H155.619V32H153.591V22.354ZM157.501 22.354H159.529V32H157.501V22.354Z" fill="#505050"/>
<rect x="16" y="55" width="50" height="34" rx="10" fill="#FFC635"/>
<path d="M20.536 146.8L18.718 151H17.758L15.946 146.8H16.996L18.274 149.8L19.57 146.8H20.536ZM21.8824 147.724C22.3824 147.724 22.7664 147.844 23.0344 148.084C23.3024 148.32 23.4364 148.678 23.4364 149.158V151H22.5604V150.598C22.3844 150.898 22.0564 151.048 21.5764 151.048C21.3284 151.048 21.1124 151.006 20.9284 150.922C20.7484 150.838 20.6104 150.722 20.5144 150.574C20.4184 150.426 20.3704 150.258 20.3704 150.07C20.3704 149.77 20.4824 149.534 20.7064 149.362C20.9344 149.19 21.2844 149.104 21.7564 149.104H22.5004C22.5004 148.9 22.4384 148.744 22.3144 148.636C22.1904 148.524 22.0044 148.468 21.7564 148.468C21.5844 148.468 21.4144 148.496 21.2464 148.552C21.0824 148.604 20.9424 148.676 20.8264 148.768L20.4904 148.114C20.6664 147.99 20.8764 147.894 21.1204 147.826C21.3684 147.758 21.6224 147.724 21.8824 147.724ZM21.8104 150.418C21.9704 150.418 22.1124 150.382 22.2364 150.31C22.3604 150.234 22.4484 150.124 22.5004 149.98V149.65H21.8584C21.4744 149.65 21.2824 149.776 21.2824 150.028C21.2824 150.148 21.3284 150.244 21.4204 150.316C21.5164 150.384 21.6464 150.418 21.8104 150.418ZM24.2836 146.548H25.2196V151H24.2836V146.548ZM26.0883 147.772H27.0243V151H26.0883V147.772ZM26.5563 147.322C26.3843 147.322 26.2443 147.272 26.1363 147.172C26.0283 147.072 25.9743 146.948 25.9743 146.8C25.9743 146.652 26.0283 146.528 26.1363 146.428C26.2443 146.328 26.3843 146.278 26.5563 146.278C26.7283 146.278 26.8683 146.326 26.9763 146.422C27.0843 146.518 27.1383 146.638 27.1383 146.782C27.1383 146.938 27.0843 147.068 26.9763 147.172C26.8683 147.272 26.7283 147.322 26.5563 147.322ZM31.1809 146.548V151H30.2869V150.628C30.0549 150.908 29.7189 151.048 29.2789 151.048C28.9749 151.048 28.6989 150.98 28.4509 150.844C28.2069 150.708 28.0149 150.514 27.8749 150.262C27.7349 150.01 27.6649 149.718 27.6649 149.386C27.6649 149.054 27.7349 148.762 27.8749 148.51C28.0149 148.258 28.2069 148.064 28.4509 147.928C28.6989 147.792 28.9749 147.724 29.2789 147.724C29.6909 147.724 30.0129 147.854 30.2449 148.114V146.548H31.1809ZM29.4409 150.28C29.6769 150.28 29.8729 150.2 30.0289 150.04C30.1849 149.876 30.2629 149.658 30.2629 149.386C30.2629 149.114 30.1849 148.898 30.0289 148.738C29.8729 148.574 29.6769 148.492 29.4409 148.492C29.2009 148.492 29.0029 148.574 28.8469 148.738C28.6909 148.898 28.6129 149.114 28.6129 149.386C28.6129 149.658 28.6909 149.876 28.8469 150.04C29.0029 150.2 29.2009 150.28 29.4409 150.28ZM17.368 154.592H16.024V153.8H19.684V154.592H18.34V158H17.368V154.592ZM22.103 154.724C22.503 154.724 22.825 154.844 23.069 155.084C23.317 155.324 23.441 155.68 23.441 156.152V158H22.505V156.296C22.505 156.04 22.449 155.85 22.337 155.726C22.225 155.598 22.063 155.534 21.851 155.534C21.615 155.534 21.427 155.608 21.287 155.756C21.147 155.9 21.077 156.116 21.077 156.404V158H20.141V153.548H21.077V155.108C21.201 154.984 21.351 154.89 21.527 154.826C21.703 154.758 21.895 154.724 22.103 154.724ZM25.1834 155.198C25.2954 155.042 25.4454 154.924 25.6334 154.844C25.8254 154.764 26.0454 154.724 26.2934 154.724V155.588C26.1894 155.58 26.1194 155.576 26.0834 155.576C25.8154 155.576 25.6054 155.652 25.4534 155.804C25.3014 155.952 25.2254 156.176 25.2254 156.476V158H24.2894V154.772H25.1834V155.198ZM30.1254 154.772V158H29.2374V157.616C29.1134 157.756 28.9654 157.864 28.7934 157.94C28.6214 158.012 28.4354 158.048 28.2354 158.048C27.8114 158.048 27.4754 157.926 27.2274 157.682C26.9794 157.438 26.8554 157.076 26.8554 156.596V154.772H27.7914V156.458C27.7914 156.978 28.0094 157.238 28.4454 157.238C28.6694 157.238 28.8494 157.166 28.9854 157.022C29.1214 156.874 29.1894 156.656 29.1894 156.368V154.772H30.1254Z" fill="#505050"/>
<path d="M39.051 156.108C38.529 156.108 38.064 155.979 37.656 155.721C37.248 155.463 36.927 155.091 36.693 154.605C36.465 154.113 36.351 153.528 36.351 152.85C36.351 152.172 36.465 151.59 36.693 151.104C36.927 150.612 37.248 150.237 37.656 149.979C38.064 149.721 38.529 149.592 39.051 149.592C39.573 149.592 40.038 149.721 40.446 149.979C40.854 150.237 41.172 150.612 41.4 151.104C41.634 151.59 41.751 152.172 41.751 152.85C41.751 153.528 41.634 154.113 41.4 154.605C41.172 155.091 40.854 155.463 40.446 155.721C40.038 155.979 39.573 156.108 39.051 156.108ZM39.051 154.875C39.435 154.875 39.735 154.71 39.951 154.38C40.173 154.05 40.284 153.54 40.284 152.85C40.284 152.16 40.173 151.65 39.951 151.32C39.735 150.99 39.435 150.825 39.051 150.825C38.673 150.825 38.373 150.99 38.151 151.32C37.935 151.65 37.827 152.16 37.827 152.85C37.827 153.54 37.935 154.05 38.151 154.38C38.373 154.71 38.673 154.875 39.051 154.875ZM45.4924 152.049C45.8944 152.049 46.2604 152.13 46.5904 152.292C46.9204 152.454 47.1814 152.685 47.3734 152.985C47.5654 153.279 47.6614 153.621 47.6614 154.011C47.6614 154.431 47.5564 154.8 47.3464 155.118C47.1364 155.436 46.8484 155.682 46.4824 155.856C46.1224 156.024 45.7204 156.108 45.2764 156.108C44.3944 156.108 43.7044 155.838 43.2064 155.298C42.7084 154.758 42.4594 153.987 42.4594 152.985C42.4594 152.271 42.5944 151.659 42.8644 151.149C43.1344 150.639 43.5094 150.252 43.9894 149.988C44.4754 149.724 45.0364 149.592 45.6724 149.592C46.0084 149.592 46.3294 149.631 46.6354 149.709C46.9474 149.781 47.2114 149.886 47.4274 150.024L46.8874 151.095C46.5754 150.885 46.1824 150.78 45.7084 150.78C45.1744 150.78 44.7514 150.936 44.4394 151.248C44.1274 151.56 43.9594 152.013 43.9354 152.607C44.3074 152.235 44.8264 152.049 45.4924 152.049ZM45.1954 155.019C45.5074 155.019 45.7594 154.935 45.9514 154.767C46.1494 154.599 46.2484 154.371 46.2484 154.083C46.2484 153.795 46.1494 153.567 45.9514 153.399C45.7594 153.225 45.5014 153.138 45.1774 153.138C44.8594 153.138 44.5984 153.228 44.3944 153.408C44.1904 153.582 44.0884 153.807 44.0884 154.083C44.0884 154.359 44.1874 154.584 44.3854 154.758C44.5834 154.932 44.8534 155.019 45.1954 155.019ZM50.5998 148.422H51.8508L48.8808 156.9H47.6298L50.5998 148.422ZM56.5092 154.812V156H51.7482V155.055L54.1782 152.76C54.4362 152.514 54.6102 152.304 54.7002 152.13C54.7902 151.95 54.8352 151.773 54.8352 151.599C54.8352 151.347 54.7482 151.155 54.5742 151.023C54.4062 150.885 54.1572 150.816 53.8272 150.816C53.5512 150.816 53.3022 150.87 53.0802 150.978C52.8582 151.08 52.6722 151.236 52.5222 151.446L51.4602 150.762C51.7062 150.396 52.0452 150.111 52.4772 149.907C52.9092 149.697 53.4042 149.592 53.9622 149.592C54.4302 149.592 54.8382 149.67 55.1862 149.826C55.5402 149.976 55.8132 150.192 56.0052 150.474C56.2032 150.75 56.3022 151.077 56.3022 151.455C56.3022 151.797 56.2302 152.118 56.0862 152.418C55.9422 152.718 55.6632 153.06 55.2492 153.444L53.8002 154.812H56.5092ZM62.7919 154.677H61.7659V156H60.3439V154.677H56.9509V153.696L59.9209 149.7H61.4509L58.6969 153.489H60.3889V152.31H61.7659V153.489H62.7919V154.677Z" fill="#505050"/>
<rect x="195" y="2" width="174" height="199" rx="13" fill="white"/>
<ellipse rx="2.65487" ry="2.6067" transform="matrix(1 0 0 -1 208.655 124.91)" fill="#505050"/>
<ellipse rx="2.65487" ry="2.6067" transform="matrix(1 0 0 -1 215.292 124.91)" fill="#505050"/>
<ellipse rx="2.65487" ry="2.6067" transform="matrix(1 0 0 -1 221.929 124.91)" fill="#505050"/>
<rect x="206" y="55" width="50" height="34" rx="10" fill="#FFC635"/>
<path d="M210.536 146.8L208.718 151H207.758L205.946 146.8H206.996L208.274 149.8L209.57 146.8H210.536ZM211.882 147.724C212.382 147.724 212.766 147.844 213.034 148.084C213.302 148.32 213.436 148.678 213.436 149.158V151H212.56V150.598C212.384 150.898 212.056 151.048 211.576 151.048C211.328 151.048 211.112 151.006 210.928 150.922C210.748 150.838 210.61 150.722 210.514 150.574C210.418 150.426 210.37 150.258 210.37 150.07C210.37 149.77 210.482 149.534 210.706 149.362C210.934 149.19 211.284 149.104 211.756 149.104H212.5C212.5 148.9 212.438 148.744 212.314 148.636C212.19 148.524 212.004 148.468 211.756 148.468C211.584 148.468 211.414 148.496 211.246 148.552C211.082 148.604 210.942 148.676 210.826 148.768L210.49 148.114C210.666 147.99 210.876 147.894 211.12 147.826C211.368 147.758 211.622 147.724 211.882 147.724ZM211.81 150.418C211.97 150.418 212.112 150.382 212.236 150.31C212.36 150.234 212.448 150.124 212.5 149.98V149.65H211.858C211.474 149.65 211.282 149.776 211.282 150.028C211.282 150.148 211.328 150.244 211.42 150.316C211.516 150.384 211.646 150.418 211.81 150.418ZM214.284 146.548H215.22V151H214.284V146.548ZM216.088 147.772H217.024V151H216.088V147.772ZM216.556 147.322C216.384 147.322 216.244 147.272 216.136 147.172C216.028 147.072 215.974 146.948 215.974 146.8C215.974 146.652 216.028 146.528 216.136 146.428C216.244 146.328 216.384 146.278 216.556 146.278C216.728 146.278 216.868 146.326 216.976 146.422C217.084 146.518 217.138 146.638 217.138 146.782C217.138 146.938 217.084 147.068 216.976 147.172C216.868 147.272 216.728 147.322 216.556 147.322ZM221.181 146.548V151H220.287V150.628C220.055 150.908 219.719 151.048 219.279 151.048C218.975 151.048 218.699 150.98 218.451 150.844C218.207 150.708 218.015 150.514 217.875 150.262C217.735 150.01 217.665 149.718 217.665 149.386C217.665 149.054 217.735 148.762 217.875 148.51C218.015 148.258 218.207 148.064 218.451 147.928C218.699 147.792 218.975 147.724 219.279 147.724C219.691 147.724 220.013 147.854 220.245 148.114V146.548H221.181ZM219.441 150.28C219.677 150.28 219.873 150.2 220.029 150.04C220.185 149.876 220.263 149.658 220.263 149.386C220.263 149.114 220.185 148.898 220.029 148.738C219.873 148.574 219.677 148.492 219.441 148.492C219.201 148.492 219.003 148.574 218.847 148.738C218.691 148.898 218.613 149.114 218.613 149.386C218.613 149.658 218.691 149.876 218.847 150.04C219.003 150.2 219.201 150.28 219.441 150.28ZM207.368 154.592H206.024V153.8H209.684V154.592H208.34V158H207.368V154.592ZM212.103 154.724C212.503 154.724 212.825 154.844 213.069 155.084C213.317 155.324 213.441 155.68 213.441 156.152V158H212.505V156.296C212.505 156.04 212.449 155.85 212.337 155.726C212.225 155.598 212.063 155.534 211.851 155.534C211.615 155.534 211.427 155.608 211.287 155.756C211.147 155.9 211.077 156.116 211.077 156.404V158H210.141V153.548H211.077V155.108C211.201 154.984 211.351 154.89 211.527 154.826C211.703 154.758 211.895 154.724 212.103 154.724ZM215.183 155.198C215.295 155.042 215.445 154.924 215.633 154.844C215.825 154.764 216.045 154.724 216.293 154.724V155.588C216.189 155.58 216.119 155.576 216.083 155.576C215.815 155.576 215.605 155.652 215.453 155.804C215.301 155.952 215.225 156.176 215.225 156.476V158H214.289V154.772H215.183V155.198ZM220.125 154.772V158H219.237V157.616C219.113 157.756 218.965 157.864 218.793 157.94C218.621 158.012 218.435 158.048 218.235 158.048C217.811 158.048 217.475 157.926 217.227 157.682C216.979 157.438 216.855 157.076 216.855 156.596V154.772H217.791V156.458C217.791 156.978 218.009 157.238 218.445 157.238C218.669 157.238 218.849 157.166 218.985 157.022C219.121 156.874 219.189 156.656 219.189 156.368V154.772H220.125Z" fill="#505050"/>
</g>
</svg>
